ModelForces
version=1
nRows=4
nColumns=155
inDegrees=no

This file contains the forces exerted on a model during a simulation.

A force is a generalized force, meaning that it can be either a force (N) or a torque (Nm).

Units are S.I. units (second, meters, Newtons, ...)
Angles are in degrees.

endheader
time	glut_med1_r	glut_med2_r	glut_med3_r	glut_min1_r	glut_min2_r	glut_min3_r	semimem_r	semiten_r	bifemlh_r	bifemsh_r	sar_r	add_long_r	add_brev_r	add_mag1_r	add_mag2_r	add_mag3_r	tfl_r	pect_r	grac_r	glut_max1_r	glut_max2_r	glut_max3_r	iliacus_r	psoas_r	quad_fem_r	gem_r	peri_r	rect_fem_r	vas_med_r	vas_int_r	vas_lat_r	med_gas_r	lat_gas_r	soleus_r	tib_post_r	flex_dig_r	flex_hal_r	tib_ant_r	per_brev_r	per_long_r	per_tert_r	ext_dig_r	ext_hal_r	glut_med1_l	glut_med2_l	glut_med3_l	glut_min1_l	glut_min2_l	glut_min3_l	semimem_l	semiten_l	bifemlh_l	bifemsh_l	sar_l	add_long_l	add_brev_l	add_mag1_l	add_mag2_l	add_mag3_l	tfl_l	pect_l	grac_l	glut_max1_l	glut_max2_l	glut_max3_l	iliacus_l	psoas_l	quad_fem_l	gem_l	peri_l	rect_fem_l	vas_med_l	vas_int_l	vas_lat_l	med_gas_l	lat_gas_l	soleus_l	tib_post_l	flex_dig_l	flex_hal_l	tib_ant_l	per_brev_l	per_long_l	per_tert_l	ext_dig_l	ext_hal_l	ercspn_r	ercspn_l	intobl_r	intobl_l	extobl_r	extobl_l	femur_lat_meniscii_r.femur_lat_r.force.X	femur_lat_meniscii_r.femur_lat_r.force.Y	femur_lat_meniscii_r.femur_lat_r.force.Z	femur_lat_meniscii_r.femur_lat_r.torque.X	femur_lat_meniscii_r.femur_lat_r.torque.Y	femur_lat_meniscii_r.femur_lat_r.torque.Z	femur_lat_meniscii_r.meniscus_lat_r.force.X	femur_lat_meniscii_r.meniscus_lat_r.force.Y	femur_lat_meniscii_r.meniscus_lat_r.force.Z	femur_lat_meniscii_r.meniscus_lat_r.torque.X	femur_lat_meniscii_r.meniscus_lat_r.torque.Y	femur_lat_meniscii_r.meniscus_lat_r.torque.Z	femur_med_meniscii_r.femur_med_r.force.X	femur_med_meniscii_r.femur_med_r.force.Y	femur_med_meniscii_r.femur_med_r.force.Z	femur_med_meniscii_r.femur_med_r.torque.X	femur_med_meniscii_r.femur_med_r.torque.Y	femur_med_meniscii_r.femur_med_r.torque.Z	femur_med_meniscii_r.meniscus_med_r.force.X	femur_med_meniscii_r.meniscus_med_r.force.Y	femur_med_meniscii_r.meniscus_med_r.force.Z	femur_med_meniscii_r.meniscus_med_r.torque.X	femur_med_meniscii_r.meniscus_med_r.torque.Y	femur_med_meniscii_r.meniscus_med_r.torque.Z	femur_med_tibia_r.tibia_upper_r.force.X	femur_med_tibia_r.tibia_upper_r.force.Y	femur_med_tibia_r.tibia_upper_r.force.Z	femur_med_tibia_r.tibia_upper_r.torque.X	femur_med_tibia_r.tibia_upper_r.torque.Y	femur_med_tibia_r.tibia_upper_r.torque.Z	femur_med_tibia_r.femur_med_r.force.X	femur_med_tibia_r.femur_med_r.force.Y	femur_med_tibia_r.femur_med_r.force.Z	femur_med_tibia_r.femur_med_r.torque.X	femur_med_tibia_r.femur_med_r.torque.Y	femur_med_tibia_r.femur_med_r.torque.Z	femur_lat_tibia_r.tibia_upper_r.force.X	femur_lat_tibia_r.tibia_upper_r.force.Y	femur_lat_tibia_r.tibia_upper_r.force.Z	femur_lat_tibia_r.tibia_upper_r.torque.X	femur_lat_tibia_r.tibia_upper_r.torque.Y	femur_lat_tibia_r.tibia_upper_r.torque.Z	femur_lat_tibia_r.femur_lat_r.force.X	femur_lat_tibia_r.femur_lat_r.force.Y	femur_lat_tibia_r.femur_lat_r.force.Z	femur_lat_tibia_r.femur_lat_r.torque.X	femur_lat_tibia_r.femur_lat_r.torque.Y	femur_lat_tibia_r.femur_lat_r.torque.Z	aACL_R	pACL_R	aPCL_R	pPCL_R	aMCL_R	mMCL_R	pMCL_R	aLCL_R	mLCL_R	pLCL_R	aPCL_L	pPCL_L	aMCL_L	aLCL_L
      0.11076575	     10.38944362	     11.14274832	     12.01713923	      5.08737493	      5.83461628	      6.48617106	    113.30022395	    167.06969829	    224.87520488	    360.67450665	    126.11963249	     11.12637050	      7.87587319	      0.00000000	      4.79783014	      8.36362364	      5.04458124	      3.86143477	     99.91880423	      7.20378082	     10.96911765	      8.27638690	     32.74125656	     24.45100757	      6.98038614	      4.51331466	      4.55919167	     38.27520494	      0.00000000	      0.00000000	      0.00000000	     29.54856904	      0.69831607	      0.00000000	      0.00000000	      1.32280665	      0.00000000	     29.47622558	      3.62461559	      4.37648436	      5.85016106	     17.49466026	      5.34017453	     10.38944362	     11.14274832	     12.01713923	      5.08737493	      5.83461628	      6.48617106	      0.00000000	      8.39304342	     14.88004672	     14.01138024	      2.89902321	     11.12637050	      7.87587319	      0.00000000	      4.79783014	      8.36362364	      6.77730341	      3.86143477	      3.00700196	      7.20378082	     10.96911765	      8.27638690	     32.74125656	     24.45100757	      6.98038614	      4.51331466	      4.55919167	     23.12512584	      0.00000000	      0.00000000	      0.00000000	     17.13327237	      8.74976976	     58.14573771	     57.46176213	      7.63010137	      7.00651265	     16.73170337	      9.36106317	     21.68455275	      3.77485620	     11.81998824	      3.98310225	     47.91485120	     47.91485120	     18.17701903	     18.17701903	     35.13443270	     35.13443270	     43.31782855	    255.43697062	     37.74505343	    -21.69126575	      1.10806626	     16.77709054	    -43.31782855	   -255.43697062	    -37.74505343	      7.78146254	     -1.59273895	      2.46637922	    -25.16897158	     54.15305755	      7.69562572	     -1.87673942	      0.58432549	    -10.30785327	     25.16897158	    -54.15305755	     -7.69562572	     -0.95501992	     -0.61374801	      1.25346926	   -102.63677160	   -511.41109095	    116.15326627	    -12.12029216	      2.57106819	      0.63088390	    102.63677160	    511.41109095	   -116.15326627	     57.57318094	     -1.56112472	     43.97943335	    -38.95062316	   -147.05927567	    -37.06293728	      4.98288122	     -1.40763271	      0.34819401	     38.95062316	    147.05927567	     37.06293728	    -18.85308533	      0.93903448	     16.08776208	      8.64380720	    -13.09142480	     27.06265122	     61.17569803	      0.00000000	      0.00000000	    -38.57078003	      0.00000000	      0.00000000	      0.00000000	      0.00000000	      0.00000000	      0.00000001	      0.00000000
      0.11185002	     10.90846733	     11.06386223	     11.93206244	      5.05259865	      5.79628984	      6.44644899	    112.68311920	    166.71664301	    221.42003057	    357.00446023	    126.11599919	     11.04657476	      7.82251906	      0.00000000	      4.77380656	      8.30201700	      5.03615342	      4.01917595	     99.76979942	      7.15278231	     10.89069679	      8.21647627	     32.59349911	     24.28273467	      6.94342205	      4.48904806	      4.71847566	     38.03067177	      0.00000000	      0.00000000	      0.00000000	     32.11963583	      0.68973877	      0.00000000	      0.00000000	      0.93901095	      0.00000000	     30.07071743	      4.03914101	      4.61488035	      8.07854295	     17.64955530	      5.31386478	     10.90846733	     11.06386223	     11.93206244	      5.05259865	      5.79628984	      6.44644899	      0.00000000	      8.33055405	     14.86000141	     13.91351086	      2.87929529	     11.04657476	      7.82251906	      0.00000000	      4.77380656	      8.30201700	      6.74081348	      4.01917595	      2.98619824	      7.15278231	     10.89069679	      8.21647627	     32.59349911	     24.28273467	      6.94342205	      4.48904806	      4.71847566	     22.96980171	      0.00000000	      0.00000000	      0.00000000	     17.45945146	      8.86971063	     58.14320403	     57.33812326	      7.52779738	      6.89753834	     16.68803740	      9.31352783	     21.63119283	      3.74913912	     11.89280676	      3.99751753	     47.58663076	     47.58663076	     18.04401673	     18.04401673	     35.01202165	     35.01202165	     48.65230868	    268.82126950	     35.65374441	    -21.13726239	      1.21558427	     18.91359639	    -48.65230868	   -268.82126950	    -35.65374441	      8.04406163	     -1.69383890	      2.55902804	    -23.42675566	     56.00076592	      8.19255605	     -2.03166245	      0.54250556	     -9.57112865	     23.42675566	    -56.00076592	     -8.19255605	     -0.98846890	     -0.58304957	      1.21215216	   -115.05766917	   -530.87050549	    122.49583433	    -12.67458165	      2.85050568	      0.47050332	    115.05766917	    530.87050549	   -122.49583433	     60.57369458	     -1.77291019	     49.19015646	    -40.42932798	   -145.03263760	    -36.04897574	      4.88013536	     -1.43845858	      0.31154044	     40.42932798	    145.03263760	     36.04897574	    -18.37251893	      0.97246180	     16.69512144	      7.95426098	    -13.49007718	     24.79006151	     57.45898632	      0.00000000	      0.00000000	      0.00000000	      0.00000000	      0.00000000	      0.00000000	      0.00000000	      0.00000000	      0.00000001	      0.00000000
      0.11293429	     11.33814441	     10.98611402	     11.84809894	      5.01833385	      5.75853309	      6.40658998	    112.10713384	    166.46198686	    217.99578147	    353.74201430	    126.16953076	     10.96796691	      7.76994704	      0.00000000	      4.74890728	      8.24117895	      5.02307476	      4.08899124	     99.67970783	      7.10247618	     10.81343462	      8.15745643	     32.44798385	     24.11700053	      6.90462527	      4.46513154	      4.86578113	     37.91094651	      0.00000000	      0.00000000	      0.00000000	     34.79750672	      0.68954707	      0.00000000	      0.00000000	      0.58481595	      0.00000000	     25.91388242	      4.45943056	      4.86512264	     12.82194213	     17.83943678	      5.28121930	     11.33814441	     10.98611402	     11.84809894	      5.01833385	      5.75853309	      6.40658998	      0.00000000	      8.26899437	     14.83697323	     13.81709158	      2.85985705	     10.96796691	      7.76994704	      0.00000000	      4.74890728	      8.24117895	      6.70471180	      4.08899124	      2.96570169	      7.10247618	     10.81343462	      8.15745643	     32.44798385	     24.11700053	      6.90462527	      4.46513154	      4.86578113	     22.81528749	      0.00000000	      0.00000000	      0.00000000	     17.76616888	      8.98222445	     58.13152844	     57.21262420	      7.42911626	      6.79263184	     16.64102703	      9.26545836	     21.57618455	      3.72379360	     11.95028762	      4.00492232	     47.26324079	     47.26324079	     17.91299182	     17.91299182	     34.89148263	     34.89148263	     51.37349434	    261.62284416	     34.06694485	    -20.28364378	      1.29241177	     20.06173026	    -51.37349434	   -261.62284416	    -34.06694485	      7.77344886	     -1.76394058	      2.42502754	    -20.68080120	     54.58647597	      8.95461780	     -2.38198190	      0.47655116	     -8.43262851	     20.68080120	    -54.58647597	     -8.95461780	     -0.93431091	     -0.53313881	      1.11856180	   -129.60219353	   -553.23657275	    127.02007187	    -13.19129661	      3.15145507	      0.28480809	    129.60219353	    553.23657275	   -127.02007187	     62.84818552	     -2.02611779	     55.28294087	    -41.69936216	   -143.69401022	    -36.03464246	      4.83725781	     -1.47587718	      0.29058219	     41.69936216	    143.69401022	     36.03464246	    -18.33217354	      1.00202104	     17.21534055	      8.70600460	    -12.50155224	     25.81222134	     60.68634175	      0.00000000	      0.00000000	      0.00000000	      0.00000000	      0.00000000	      0.00000000	      0.00000000	      0.00000000	      0.00000001	      0.00000000
      0.11401857	     11.69336830	     10.90949150	     11.76525306	      4.98457265	      5.72133718	      6.36665926	    111.70377625	    166.48959815	    214.88692505	    351.99115632	    126.43995096	     10.89052851	      7.71814512	      0.00000000	      4.72328923	      8.18110962	      5.02012710	      4.11310199	     99.78828372	      7.05286206	     10.73731500	      8.09931405	     32.30467502	     23.95376522	      6.86451326	      4.44156145	      5.00204450	     37.62111628	      0.00000000	      0.00000000	      0.00000000	     37.67574235	      0.72978724	      0.00000000	      0.00000000	      0.26496760	      0.00000000	     29.35462982	      4.88202057	      5.12196815	     16.10519769	     18.01757767	      5.25669601	     11.69336830	     10.90949150	     11.76525306	      4.98457265	      5.72133718	      6.36665926	      0.00000000	      8.20834997	     14.81106359	     13.72209993	      2.84070402	     10.89052851	      7.71814512	      0.00000000	      4.72328923	      8.18110962	      6.66900241	      4.11310199	      2.94550757	      7.05286206	     10.73731500	      8.09931405	     32.30467502	     23.95376522	      6.86451326	      4.44156145	      5.00204450	     22.66166376	      0.00000000	      0.00000000	      0.00000000	     18.05446394	      9.08767350	     58.11107877	     57.08538917	      7.33410492	      6.69187599	     16.59086546	      9.21691639	     21.51958569	      3.69881545	     11.99234455	      4.00575116	     46.94460686	     46.94460686	     17.78391405	     17.78391405	     34.77278540	     34.77278540	     47.93043949	    255.63621570	     34.81792026	    -20.45868072	      1.20080129	     18.61586383	    -47.93043949	   -255.63621570	    -34.81792026	      7.64034059	     -1.67888328	      2.54001627	    -18.68957053	     52.32543964	      9.65648721	     -2.72669698	      0.42806525	     -7.61977668	     18.68957053	    -52.32543964	     -9.65648721	     -0.86435201	     -0.49870265	      1.05227147	   -137.81565597	   -553.61046020	    126.79781714	    -13.18179950	      3.31727095	      0.15834099	    137.81565597	    553.61046020	   -126.79781714	     62.73868638	     -2.18131726	     58.66436502	    -41.07693328	   -137.03522741	    -34.88534434	      4.62337633	     -1.45460709	      0.27152692	     41.07693328	    137.03522741	     34.88534434	    -17.69724464	      0.98905531	     16.95150531	      8.38060865	    -12.48324903	     28.45554129	     66.89827830	      0.00000000	      0.00000000	      0.00000000	      0.00000000	      0.00000000	      0.00000000	      0.00000000	      0.00000000	      0.00000001	      0.00000000
